<?xml version="1.0" encoding="UTF-8"?>
<svg xmlns="http://www.w3.org/2000/svg" xmlns:xlink="http://www.w3.org/1999/xlink" viewBox="0 0 40 40" width="40px" height="40px">
<defs>
<linearGradient id="linear0" gradientUnits="userSpaceOnUse" x1="83.309807" y1="43" x2="83.309807" y2="148.731628" gradientTransform="matrix(0.232558,0,0,0.232558,0,0)">
<stop offset="0" style="stop-color:rgb(54.11765%,70.588237%,100%);stop-opacity:1;"/>
<stop offset="1" style="stop-color:rgb(89.411765%,57.254905%,100%);stop-opacity:1;"/>
</linearGradient>
<linearGradient id="linear1" gradientUnits="userSpaceOnUse" x1="86" y1="13.4375" x2="86" y2="159.011307" gradientTransform="matrix(0.232558,0,0,0.232558,0,0)">
<stop offset="0" style="stop-color:rgb(10.196079%,42.745098%,100%);stop-opacity:1;"/>
<stop offset="1" style="stop-color:rgb(78.431374%,13.333334%,100%);stop-opacity:1;"/>
</linearGradient>
</defs>
<g id="surface138652513">
<path style=" stroke:none;fill-rule:nonzero;fill:url(#linear0);" d="M 15.628906 35.003906 C 15.628906 34.773438 15.625 33.777344 15.625 32.84375 L 15.621094 31.875 C 11.417969 32.449219 10.398438 29.515625 10.386719 29.484375 C 9.804688 28.003906 9.003906 27.578125 8.972656 27.5625 L 8.894531 27.515625 C 8.605469 27.320312 7.835938 26.792969 8.054688 26.101562 C 8.25 25.480469 9.015625 25.414062 9.363281 25.425781 C 11.28125 25.5625 12.253906 27.289062 12.296875 27.359375 C 13.277344 29.042969 14.773438 28.867188 15.738281 28.515625 C 15.828125 28.082031 15.96875 27.6875 16.152344 27.339844 C 13.054688 26.789062 9.542969 25.144531 9.542969 19.148438 C 9.542969 17.503906 10.054688 16.050781 11.070312 14.820312 C 10.84375 14.066406 10.585938 12.527344 11.347656 10.589844 L 11.457031 10.316406 L 11.738281 10.226562 C 12 10.140625 13.417969 9.835938 16.339844 11.746094 C 17.542969 11.4375 18.820312 11.277344 20.136719 11.269531 C 21.457031 11.277344 22.734375 11.4375 23.941406 11.746094 C 26.859375 9.835938 28.273438 10.140625 28.535156 10.226562 L 28.816406 10.316406 L 28.925781 10.589844 C 29.691406 12.527344 29.433594 14.066406 29.207031 14.820312 C 30.21875 16.046875 30.730469 17.5 30.730469 19.148438 C 30.730469 25.144531 27.21875 26.785156 24.113281 27.328125 C 24.464844 27.996094 24.65625 28.832031 24.65625 29.753906 C 24.65625 30.804688 24.652344 34.253906 24.648438 35.003906 L 23.398438 34.996094 C 23.402344 34.25 23.40625 30.804688 23.40625 29.753906 C 23.40625 28.226562 22.816406 27.550781 22.5625 27.332031 L 21.480469 26.394531 L 22.902344 26.238281 C 26.15625 25.875 29.480469 24.75 29.480469 19.148438 C 29.480469 17.691406 28.996094 16.421875 28.039062 15.375 L 27.769531 15.082031 L 27.921875 14.71875 C 28.023438 14.464844 28.480469 13.191406 27.894531 11.410156 C 27.417969 11.4375 26.289062 11.660156 24.402344 12.9375 L 24.164062 13.101562 L 23.886719 13.023438 C 22.71875 12.699219 21.421875 12.527344 20.132812 12.519531 C 18.851562 12.527344 17.558594 12.699219 16.394531 13.023438 L 16.117188 13.101562 L 15.875 12.9375 C 13.988281 11.660156 12.855469 11.4375 12.378906 11.410156 C 11.796875 13.191406 12.25 14.464844 12.355469 14.71875 L 12.507812 15.082031 L 12.238281 15.375 C 11.277344 16.425781 10.792969 17.695312 10.792969 19.148438 C 10.792969 24.75 14.109375 25.878906 17.359375 26.25 L 18.765625 26.410156 L 17.699219 27.339844 C 17.464844 27.542969 17.054688 28.035156 16.914062 29.046875 L 16.867188 29.390625 L 16.550781 29.53125 C 15.726562 29.902344 12.902344 30.882812 11.207031 27.976562 C 11.199219 27.960938 10.867188 27.386719 10.269531 27.003906 C 10.671875 27.402344 11.164062 28.050781 11.5625 29.058594 C 11.601562 29.175781 12.410156 31.324219 16.113281 30.519531 L 16.867188 30.355469 L 16.875 32.84375 C 16.875 33.773438 16.875 34.765625 16.878906 34.996094 Z M 15.628906 35.003906 "/>
<path style=" stroke:none;fill-rule:nonzero;fill:url(#linear1);" d="M 20 36.25 C 11.039062 36.25 3.75 28.960938 3.75 20 C 3.75 11.039062 11.039062 3.75 20 3.75 C 28.960938 3.75 36.25 11.039062 36.25 20 C 36.25 28.960938 28.960938 36.25 20 36.25 Z M 20 5 C 11.730469 5 5 11.730469 5 20 C 5 28.269531 11.730469 35 20 35 C 28.269531 35 35 28.269531 35 20 C 35 11.730469 28.269531 5 20 5 Z M 20 5 "/>
</g>
</svg>
